<svg xmlns="http://www.w3.org/2000/svg" width="200" height="43.598" viewBox="0 0 200 43.598">
  <g id="logo_kyberna" transform="translate(-19.707 -13.392)">
    <path id="Path_1" data-name="Path 1" d="M58.469,22.1a6.187,6.187,0,0,0-1.2-3.7l-4.286-5.012-.025,21.094a3.325,3.325,0,0,1,.025.5q-.069,1.7-.954.409c-.02-.047-.044-.07-.044-.094a6.062,6.062,0,0,0-.613-.772,22.808,22.808,0,0,0-2.993-2.265,38.888,38.888,0,0,1-4.946-3.7,13.148,13.148,0,0,1-3.425-5.4L33.479,28.5A12.745,12.745,0,0,0,36.9,34.485a18.1,18.1,0,0,0,5.261,3.651,10.308,10.308,0,0,1,3.583,2.378,9.974,9.974,0,0,1,1.543,3.268H57.859l-3.925-5.217c-.5-.793-.294-1.224.658-1.247H73.28l-5.353-6.395H58.469Z" transform="translate(-1.022)" fill="#1a171b"/>
    <path id="Path_2" data-name="Path 2" d="M66.587,58.18l-5.623-7.463H41.64a13.441,13.441,0,0,0-1.905-3.805A8.908,8.908,0,0,0,36.128,44.3a16.874,16.874,0,0,1-5.261-3.513,11.573,11.573,0,0,1-3.423-6.622l.019-.135-7.756,6.348A19.293,19.293,0,0,0,23.7,46.865a17.052,17.052,0,0,0,5.218,4.126,10.486,10.486,0,0,1,3.9,2.948,14.346,14.346,0,0,1,2.36,4.244H66.587v0Z" transform="translate(0 -1.531)" fill="#ef5f14"/>
    <g id="Group_1" data-name="Group 1" transform="translate(76.111 22.162)">
      <path id="Path_3" data-name="Path 3" d="M84.748,27.177c-.32-.527-.558-.682-1.034-.682a.915.915,0,0,0-1,.858.677.677,0,0,0,.331.58,4.74,4.74,0,0,0,1.106.506c1.117.466,1.614,1.086,1.614,2.037a2.222,2.222,0,0,1-4.023,1.283,2.266,2.266,0,0,1-.393-1.117L82.4,30.4a1.793,1.793,0,0,0,.2.755,1.147,1.147,0,0,0,2.119-.609,1.052,1.052,0,0,0-.476-.91,5.754,5.754,0,0,0-1.168-.548c-.962-.4-1.416-.972-1.416-1.748a1.93,1.93,0,0,1,2.068-1.831,1.991,1.991,0,0,1,1.862,1.159Z" transform="translate(-80.684 -23.061)" fill="#1a171b"/>
      <path id="Path_4" data-name="Path 4" d="M89.885,32.554H88.84V26.639H87.258v-.983h4.209v.983H89.885Z" transform="translate(-81.123 -23.072)" fill="#1a171b"/>
      <path id="Path_5" data-name="Path 5" d="M97.725,32.347H96.453l-1.965-2.823H94.3v2.823H93.258v-6.9h1.22a3.042,3.042,0,0,1,1.82.4,1.981,1.981,0,0,1,.828,1.624,1.919,1.919,0,0,1-1.53,1.934ZM94.994,24.83,93.4,23.4l.693-.528.889.838.889-.848.682.538Zm-.361,3.785a1.806,1.806,0,0,0,1.044-.248,1.077,1.077,0,0,0,.434-.88.986.986,0,0,0-.414-.817,1.7,1.7,0,0,0-1.023-.238H94.3v2.181Z" transform="translate(-81.568 -22.865)" fill="#1a171b"/>
      <path id="Path_6" data-name="Path 6" d="M100.692,26.639v1.654h2.678v.982h-2.678v2.3h2.761v.984H99.648v-6.9h3.805v.983l-2.761,0Z" transform="translate(-82.042 -23.072)" fill="#1a171b"/>
      <path id="Path_7" data-name="Path 7" d="M105.683,25.657h1.448a3.933,3.933,0,0,1,2.554.673,3.331,3.331,0,0,1,1.333,2.771,3.283,3.283,0,0,1-1.385,2.792,3.7,3.7,0,0,1-2.524.662h-1.428v-6.9Zm1.509,5.913a2.8,2.8,0,0,0,1.84-.5,2.4,2.4,0,0,0,.942-1.965,2.441,2.441,0,0,0-.942-1.986,2.874,2.874,0,0,0-1.84-.485h-.466V31.57Z" transform="translate(-82.49 -23.072)" fill="#1a171b"/>
      <path id="Path_8" data-name="Path 8" d="M113.3,25.154l5.026,5.254V25.62h1.044v7.321l-5.026-5.253v4.829H113.3Z" transform="translate(-83.055 -23.035)" fill="#1a171b"/>
      <path id="Path_9" data-name="Path 9" d="M122.57,24.839l-.5-.414,1.366-1.437.848.62Zm.57,7.518H122.1v-6.9h1.044Z" transform="translate(-83.706 -22.874)" fill="#1a171b"/>
      <path id="Path_10" data-name="Path 10" d="M131.734,26.98c-.321-.527-.559-.682-1.034-.682a.916.916,0,0,0-1,.858.679.679,0,0,0,.331.58,4.791,4.791,0,0,0,1.106.506c1.117.466,1.613,1.086,1.613,2.037a2.222,2.222,0,0,1-4.023,1.283,2.275,2.275,0,0,1-.393-1.117l1.055-.239a1.793,1.793,0,0,0,.2.755,1.148,1.148,0,0,0,2.12-.609,1.052,1.052,0,0,0-.476-.91,5.755,5.755,0,0,0-1.168-.548c-.962-.4-1.416-.972-1.416-1.748a1.929,1.929,0,0,1,2.067-1.831,1.991,1.991,0,0,1,1.862,1.159Zm-1.067-2.151L129.075,23.4l.693-.528.89.838.89-.848.681.538Z" transform="translate(-84.17 -22.865)" fill="#1a171b"/>
      <path id="Path_11" data-name="Path 11" d="M138.625,25.657h1.385l-3.1,3.123,3.123,3.775h-1.387l-2.481-3.071-.217.217v2.854H134.9v-6.9h1.045v2.751Z" transform="translate(-84.657 -23.072)" fill="#1a171b"/>
      <path id="Path_12" data-name="Path 12" d="M148.311,29.1a3.6,3.6,0,0,1-3.641,3.578,3.738,3.738,0,0,1-2.7-1.22,3.449,3.449,0,0,1-.868-2.389,3.6,3.6,0,0,1,7.208.031Zm-6.164-.02a2.468,2.468,0,0,0,.765,1.882,2.607,2.607,0,0,0,1.768.734,2.6,2.6,0,1,0-2.533-2.616Z" transform="translate(-85.118 -23.061)" fill="#1a171b"/>
      <path id="Path_13" data-name="Path 13" d="M151.79,31.57h2.026v.984h-3.07v-6.9h1.044V31.57Z" transform="translate(-85.833 -23.072)" fill="#1a171b"/>
      <path id="Path_14" data-name="Path 14" d="M156.6,30.844l-.775,1.676h-1.117l3.413-7.331,3.289,7.331h-1.138l-.725-1.676H156.6Zm1.5-3.319-1.065,2.337h2.089Z" transform="translate(-86.127 -23.037)" fill="#1a171b"/>
      <path id="Path_15" data-name="Path 15" d="M85.7,41.8v4.353h-1V45.7a1.755,1.755,0,0,1-1.334.59,2.315,2.315,0,0,1-.031-4.6,1.727,1.727,0,0,1,1.366.62V41.8h1ZM82.3,43.974a1.236,1.236,0,1,0,1.211-1.387A1.274,1.274,0,0,0,82.3,43.974Z" transform="translate(-80.679 -24.262)" fill="#1a171b"/>
      <path id="Path_16" data-name="Path 16" d="M93.505,43.842l1.934-4.777h1.138l-3.092,7.414-3.019-7.414H91.6Z" transform="translate(-81.361 -24.067)" fill="#1a171b"/>
      <path id="Path_17" data-name="Path 17" d="M97.526,39.065h1.2l1.572,2.761,1.592-2.761h1.189l-2.254,3.919v2.978H99.78V42.984Z" transform="translate(-81.885 -24.067)" fill="#1a171b"/>
      <path id="Path_18" data-name="Path 18" d="M107.867,40.388c-.32-.527-.558-.682-1.034-.682a.915.915,0,0,0-1,.858.677.677,0,0,0,.331.58,4.74,4.74,0,0,0,1.106.506c1.117.466,1.613,1.086,1.613,2.037a2.222,2.222,0,0,1-4.023,1.284,2.269,2.269,0,0,1-.393-1.117l1.054-.239a1.8,1.8,0,0,0,.2.755,1.147,1.147,0,0,0,2.119-.608,1.053,1.053,0,0,0-.476-.911,5.725,5.725,0,0,0-1.168-.547c-.962-.4-1.416-.972-1.416-1.748a1.93,1.93,0,0,1,2.068-1.832,1.991,1.991,0,0,1,1.862,1.159ZM106.8,38.238l-1.592-1.427.693-.528.889.838.889-.848.682.538Z" transform="translate(-82.399 -23.86)" fill="#1a171b"/>
      <path id="Path_19" data-name="Path 19" d="M114.068,40.388c-.321-.527-.559-.682-1.034-.682a.916.916,0,0,0-1,.858.679.679,0,0,0,.331.58,4.79,4.79,0,0,0,1.106.506c1.117.466,1.613,1.086,1.613,2.037a2.222,2.222,0,0,1-4.023,1.284,2.278,2.278,0,0,1-.393-1.117l1.054-.239a1.8,1.8,0,0,0,.2.755,1.148,1.148,0,0,0,2.12-.608,1.053,1.053,0,0,0-.476-.911,5.725,5.725,0,0,0-1.168-.547c-.962-.4-1.416-.972-1.416-1.748a1.93,1.93,0,0,1,2.067-1.832,1.991,1.991,0,0,1,1.862,1.159ZM113,38.238l-1.592-1.427.693-.528.89.838.89-.848.681.538Z" transform="translate(-82.859 -23.86)" fill="#1a171b"/>
      <path id="Path_20" data-name="Path 20" d="M117.711,38.247l-.5-.414,1.366-1.437.848.62Zm.568,7.518h-1.044v-6.9h1.044Z" transform="translate(-83.345 -23.869)" fill="#1a171b"/>
      <path id="Path_21" data-name="Path 21" d="M130.679,42.506a3.6,3.6,0,0,1-3.64,3.578,3.74,3.74,0,0,1-2.7-1.219,3.451,3.451,0,0,1-.868-2.389,3.6,3.6,0,0,1,7.208.03Zm-6.162-.019a2.466,2.466,0,0,0,.765,1.882,2.607,2.607,0,0,0,1.768.734,2.6,2.6,0,1,0-2.533-2.616Z" transform="translate(-83.809 -24.056)" fill="#1a171b"/>
      <path id="Path_22" data-name="Path 22" d="M133.113,39.065h1.447a3.934,3.934,0,0,1,2.555.673,3.329,3.329,0,0,1,1.334,2.771,3.285,3.285,0,0,1-1.386,2.792,3.7,3.7,0,0,1-2.525.662h-1.427v-6.9Zm1.511,5.913a2.812,2.812,0,0,0,1.841-.5,2.4,2.4,0,0,0,.942-1.965,2.441,2.441,0,0,0-.942-1.986,2.876,2.876,0,0,0-1.841-.485h-.466v4.932Z" transform="translate(-84.525 -24.067)" fill="#1a171b"/>
      <path id="Path_23" data-name="Path 23" d="M140.735,39.065h1.034a2.807,2.807,0,0,1,1.654.352A2.009,2.009,0,0,1,144.208,41a1.591,1.591,0,0,1-.559,1.252,1.779,1.779,0,0,1,1.179,1.737,1.925,1.925,0,0,1-.693,1.479,2.512,2.512,0,0,1-1.821.5h-1.582v-6.9Zm1.366,2.968a1.057,1.057,0,0,0,.828-.249,1.1,1.1,0,0,0,.3-.765.941.941,0,0,0-1.085-.993h-.362v2.006Zm.319,2.945a1.591,1.591,0,0,0,.962-.216,1.008,1.008,0,0,0,.425-.817,1.051,1.051,0,0,0-.425-.817,1.774,1.774,0,0,0-1.074-.228h-.528v2.078Z" transform="translate(-85.09 -24.067)" fill="#1a171b"/>
      <path id="Path_24" data-name="Path 24" d="M153.83,42.506a3.6,3.6,0,0,1-3.641,3.578,3.735,3.735,0,0,1-2.7-1.219,3.451,3.451,0,0,1-.868-2.389,3.6,3.6,0,0,1,7.207.03Zm-6.163-.019a2.466,2.466,0,0,0,.765,1.882,2.607,2.607,0,0,0,1.767.734,2.6,2.6,0,1,0-2.532-2.616Z" transform="translate(-85.527 -24.056)" fill="#1a171b"/>
      <path id="Path_25" data-name="Path 25" d="M160.733,45.962h-1.272L157.5,43.139h-.186v2.823h-1.045v-6.9h1.22a3.044,3.044,0,0,1,1.82.4,1.978,1.978,0,0,1,.828,1.624,1.918,1.918,0,0,1-1.529,1.934Zm-3.092-3.733a1.808,1.808,0,0,0,1.044-.248,1.078,1.078,0,0,0,.436-.88.986.986,0,0,0-.414-.817,1.7,1.7,0,0,0-1.023-.238h-.372v2.181Z" transform="translate(-86.243 -24.067)" fill="#1a171b"/>
      <path id="Path_26" data-name="Path 26" d="M162.658,38.562l5.026,5.255V39.029h1.044V46.35L163.7,41.1v4.829h-1.044Z" transform="translate(-86.717 -24.03)" fill="#1a171b"/>
      <path id="Path_27" data-name="Path 27" d="M172.482,44.088l-.775,1.677H170.59L174,38.433l3.288,7.331h-1.139l-.723-1.677Zm1.5-3.318-1.065,2.337h2.089Zm-.217-2.523-.5-.414L174.7,36.4l.89.62Z" transform="translate(-87.305 -23.869)" fill="#1a171b"/>
      <path id="Path_28" data-name="Path 28" d="M185.491,40.388c-.321-.527-.559-.682-1.034-.682a.917.917,0,0,0-1,.858.679.679,0,0,0,.331.58,4.79,4.79,0,0,0,1.106.506c1.116.466,1.613,1.086,1.613,2.037a2.223,2.223,0,0,1-4.024,1.284,2.288,2.288,0,0,1-.393-1.117l1.055-.239a1.809,1.809,0,0,0,.2.755,1.147,1.147,0,0,0,2.119-.608,1.053,1.053,0,0,0-.476-.911,5.726,5.726,0,0,0-1.168-.547c-.962-.4-1.416-.972-1.416-1.748a1.93,1.93,0,0,1,2.067-1.832,1.991,1.991,0,0,1,1.862,1.159Zm-1.067-2.151-1.591-1.427.693-.528.89.838.89-.848.681.538Z" transform="translate(-88.158 -23.86)" fill="#1a171b"/>
      <path id="Path_29" data-name="Path 29" d="M192.382,39.065h1.385l-3.1,3.123,3.123,3.775H192.4l-2.483-3.07-.216.216v2.854h-1.044v-6.9H189.7v2.751Z" transform="translate(-88.646 -24.067)" fill="#1a171b"/>
      <path id="Path_30" data-name="Path 30" d="M202.067,42.506a3.6,3.6,0,0,1-3.64,3.578,3.74,3.74,0,0,1-2.7-1.219,3.451,3.451,0,0,1-.868-2.389,3.6,3.6,0,0,1,7.208.03Zm-6.162-.019a2.463,2.463,0,0,0,.765,1.882,2.606,2.606,0,0,0,1.768.734,2.6,2.6,0,1,0-2.533-2.616Z" transform="translate(-89.106 -24.056)" fill="#1a171b"/>
      <path id="Path_31" data-name="Path 31" d="M205.547,44.978h2.028v.984H204.5v-6.9h1.044v5.913Z" transform="translate(-89.822 -24.067)" fill="#1a171b"/>
      <path id="Path_32" data-name="Path 32" d="M210.362,44.251l-.774,1.677h-1.117l3.413-7.331,3.288,7.331h-1.138l-.724-1.677Zm1.5-3.318L210.8,43.269h2.089Z" transform="translate(-90.116 -24.032)" fill="#1a171b"/>
      <path id="Path_33" data-name="Path 33" d="M82.523,57.661l-.776,1.677H80.631l3.413-7.331,3.288,7.331H86.194l-.724-1.677Zm1.5-3.318-1.065,2.336h2.089Z" transform="translate(-80.631 -25.027)" fill="#1a171b"/>
      <path id="Path_34" data-name="Path 34" d="M90.3,59.371H89.258v-6.9h1.179a2.831,2.831,0,0,1,1.933.436,2.072,2.072,0,0,1,.755,1.612,2.039,2.039,0,0,1-.6,1.458,2.39,2.39,0,0,1-1.737.59H90.3v2.8h0Zm.381-3.764a1.594,1.594,0,0,0,1.086-.28,1.1,1.1,0,0,0,.351-.828,1.018,1.018,0,0,0-.382-.817,1.786,1.786,0,0,0-1.1-.249H90.3v2.173h.383Z" transform="translate(-81.271 -25.062)" fill="#1a171b"/>
      <path id="Path_35" data-name="Path 35" d="M96.079,58.388h2.027v.984H95.035v-6.9h1.044Z" transform="translate(-81.7 -25.062)" fill="#1a171b"/>
      <path id="Path_36" data-name="Path 36" d="M100.905,59.371H99.861v-6.9h1.044Z" transform="translate(-82.058 -25.062)" fill="#1a171b"/>
      <path id="Path_37" data-name="Path 37" d="M106.948,52.474h1.386l-3.1,3.123,3.123,3.775h-1.386L104.486,56.3l-.218.217v2.854h-1.044v-6.9h1.044v2.752Z" transform="translate(-82.307 -25.062)" fill="#1a171b"/>
      <path id="Path_38" data-name="Path 38" d="M116.632,55.916a3.6,3.6,0,0,1-3.64,3.578,3.743,3.743,0,0,1-2.7-1.22,3.449,3.449,0,0,1-.868-2.389,3.6,3.6,0,0,1,7.207.031Zm-6.161-.02a2.465,2.465,0,0,0,.765,1.882,2.607,2.607,0,0,0,1.768.734,2.6,2.6,0,1,0-2.533-2.616Z" transform="translate(-82.767 -25.051)" fill="#1a171b"/>
      <path id="Path_39" data-name="Path 39" d="M120.969,57.251l1.934-4.777h1.138l-3.092,7.416-3.02-7.416h1.138Z" transform="translate(-83.398 -25.062)" fill="#1a171b"/>
      <path id="Path_40" data-name="Path 40" d="M126.313,57.661l-.775,1.677h-1.117l3.413-7.331,3.288,7.331h-1.138l-.724-1.677Zm1.5-3.318-1.065,2.336h2.089Z" transform="translate(-83.88 -25.027)" fill="#1a171b"/>
      <path id="Path_41" data-name="Path 41" d="M133.047,51.972l5.027,5.253V52.437h1.043v7.321l-5.026-5.253v4.829h-1.044V51.972Z" transform="translate(-84.52 -25.025)" fill="#1a171b"/>
      <path id="Path_42" data-name="Path 42" d="M142.885,53.257v1.654h2.68v.982h-2.68v2.3h2.761v.983h-3.805v-6.9h3.805v.984h-2.761Zm.6-1.6-.5-.414,1.427-1.437.89.62Z" transform="translate(-85.172 -24.864)" fill="#1a171b"/>
      <path id="Path_43" data-name="Path 43" d="M154.839,52.474h1.384l-3.1,3.123,3.123,3.775h-1.386L152.375,56.3l-.217.217v2.854h-1.044v-6.9h1.044v2.752Z" transform="translate(-85.86 -25.062)" fill="#1a171b"/>
      <path id="Path_44" data-name="Path 44" d="M157.184,52.474h1.2l1.571,2.761,1.593-2.761h1.19l-2.256,3.918v2.979h-1.044V56.392Z" transform="translate(-86.311 -25.062)" fill="#1a171b"/>
      <path id="Path_45" data-name="Path 45" d="M164.489,52.474h1.034a2.8,2.8,0,0,1,1.654.352,2.009,2.009,0,0,1,.787,1.582,1.59,1.59,0,0,1-.559,1.252,1.78,1.78,0,0,1,1.178,1.736,1.926,1.926,0,0,1-.693,1.48,2.514,2.514,0,0,1-1.82.5h-1.582v-6.9Zm1.366,2.968a1.051,1.051,0,0,0,.827-.249,1.1,1.1,0,0,0,.3-.765.942.942,0,0,0-1.085-.994h-.363V55.44l.321,0Zm.321,2.946a1.591,1.591,0,0,0,.962-.216,1.008,1.008,0,0,0,.423-.817,1.054,1.054,0,0,0-.423-.817,1.783,1.783,0,0,0-1.076-.228h-.527v2.078Z" transform="translate(-86.853 -25.062)" fill="#1a171b"/>
      <path id="Path_46" data-name="Path 46" d="M171.825,53.455V55.11h2.68v.982h-2.68v2.3h2.761v.983H170.78v-6.9h3.806v.984h-2.761Z" transform="translate(-87.32 -25.062)" fill="#1a171b"/>
      <path id="Path_47" data-name="Path 47" d="M181.283,59.371H180.01l-1.964-2.824h-.186v2.824h-1.045v-6.9h1.22a3.047,3.047,0,0,1,1.821.4,1.981,1.981,0,0,1,.827,1.624,1.92,1.92,0,0,1-1.53,1.935Zm-3.093-3.733a1.808,1.808,0,0,0,1.044-.248,1.078,1.078,0,0,0,.436-.88.988.988,0,0,0-.414-.817,1.691,1.691,0,0,0-1.023-.239h-.372v2.181l.329,0Z" transform="translate(-87.767 -25.062)" fill="#1a171b"/>
      <path id="Path_48" data-name="Path 48" d="M183.206,51.972l5.026,5.253V52.437h1.044v7.321l-5.026-5.253v4.829h-1.044Z" transform="translate(-88.241 -25.025)" fill="#1a171b"/>
      <path id="Path_49" data-name="Path 49" d="M193.043,53.455V55.11h2.68v.982h-2.68v2.3H195.8v.983H192v-6.9H195.8v.984h-2.761Z" transform="translate(-88.894 -25.062)" fill="#1a171b"/>
      <path id="Path_50" data-name="Path 50" d="M199.878,59.371h-1.045V53.455h-1.582v-.983h4.209v.983h-1.581v5.916Z" transform="translate(-89.284 -25.062)" fill="#1a171b"/>
      <path id="Path_51" data-name="Path 51" d="M204.3,59.371h-1.044v-6.9H204.3Z" transform="translate(-89.729 -25.062)" fill="#1a171b"/>
      <path id="Path_52" data-name="Path 52" d="M210.339,52.474h1.384l-3.1,3.123,3.123,3.775h-1.386L207.875,56.3l-.217.217v2.854h-1.044v-6.9h1.044v2.752Z" transform="translate(-89.978 -25.062)" fill="#1a171b"/>
      <path id="Path_53" data-name="Path 53" d="M212.682,52.474h1.2l1.572,2.761,1.592-2.761h1.19l-2.255,3.918v2.979h-1.044V56.392Z" transform="translate(-90.428 -25.062)" fill="#1a171b"/>
      <path id="Path_54" data-name="Path 54" d="M222.608,57.715c-.084-.174-.181-.251-.311-.251a.2.2,0,0,0-.209.194c0,.117.072.174.365.311.675.311.849.5.849.9a.94.94,0,0,1-.973.919.991.991,0,0,1-.973-.675l.539-.246c.148.273.252.356.442.356a.291.291,0,0,0,.324-.291c0-.174-.038-.209-.629-.5-.4-.2-.532-.368-.532-.707a.844.844,0,0,1,1.629-.286Z" transform="translate(-91.072 -25.39)" fill="#1a171b"/>
      <path id="Path_55" data-name="Path 55" d="M225.172,59.557a.392.392,0,0,1-.389.4.393.393,0,0,1-.007-.785A.392.392,0,0,1,225.172,59.557Z" transform="translate(-91.297 -25.558)" fill="#1a171b"/>
      <path id="Path_56" data-name="Path 56" d="M227.166,56.97v.246a.778.778,0,0,1,.63-.324.877.877,0,0,1,.524.168l-.291.577a.527.527,0,0,0-.351-.135c-.351,0-.513.247-.513.786V59.7h-.63V56.971h.63Z" transform="translate(-91.456 -25.39)" fill="#1a171b"/>
      <path id="Path_57" data-name="Path 57" d="M229.625,59.557a.391.391,0,0,1-.389.4.393.393,0,0,1-.007-.785A.392.392,0,0,1,229.625,59.557Z" transform="translate(-91.627 -25.558)" fill="#1a171b"/>
      <path id="Path_58" data-name="Path 58" d="M233.621,58.337a1.456,1.456,0,1,1-1.459-1.437A1.433,1.433,0,0,1,233.621,58.337Zm-2.271-.006a.816.816,0,1,0,.812-.867A.8.8,0,0,0,231.35,58.331Z" transform="translate(-91.766 -25.39)" fill="#1a171b"/>
      <path id="Path_59" data-name="Path 59" d="M235.672,59.557a.392.392,0,0,1-.389.4.393.393,0,1,1-.007-.785A.392.392,0,0,1,235.672,59.557Z" transform="translate(-92.076 -25.558)" fill="#1a171b"/>
    </g>
  </g>
</svg>
